<svg width="40" height="40" viewBox="0 0 40 40" fill="none" xmlns="http://www.w3.org/2000/svg">
<rect width="40" height="40" rx="6" fill="white"/>
<path d="M21.0894 14.2473C20.5131 13.8815 19.8677 13.6383 19.1934 13.533C18.545 13.4336 17.8838 13.4561 17.2437 13.5993C16.4998 13.772 15.8044 14.1098 15.209 14.5878C14.6135 15.0658 14.1332 15.6716 13.8037 16.3605C13.3671 17.2645 13.2117 18.3605 13.3557 19.5262C13.4708 20.4085 13.8232 21.2431 14.3751 21.941C15.5031 23.3822 17.3979 24.1399 19.1831 23.8439C19.8778 23.7307 20.5422 23.4775 21.1359 23.0994C21.7297 22.7214 22.2403 22.2266 22.6368 21.645C23.3671 20.5479 23.6116 19.1673 23.4208 17.8256C23.3174 17.095 23.055 16.3959 22.6522 15.7777C22.2494 15.1595 21.7159 14.6371 21.0894 14.2473Z" fill="#EB3223"/>
<path d="M22.3773 4.17761C19.2477 3.70739 16.049 4.17581 13.1857 5.52362C10.3224 6.87144 7.92308 9.0381 6.29121 11.7496C4.65935 14.4611 3.86823 17.5956 4.01791 20.7568C4.1676 23.9179 5.25136 26.9637 7.13214 29.5089C9.01292 32.054 11.6062 33.9843 14.5841 35.0555C17.562 36.1267 20.7906 36.2908 23.8617 35.527C26.9328 34.7631 29.7085 33.1057 31.8376 30.7643C33.9667 28.4229 35.3536 25.5027 35.823 22.373C36.4522 18.1772 35.3893 13.9033 32.8678 10.4912C30.3464 7.079 26.5729 4.80801 22.3773 4.17761ZM27.3224 25.2736C27.0186 25.5694 26.6159 25.742 26.1921 25.7582C25.7943 25.7627 25.4069 25.6304 25.095 25.3833C24.9175 25.2435 24.7725 25.0669 24.6699 24.8656C24.6552 24.8221 24.6297 24.7832 24.5957 24.7524C24.5617 24.7216 24.5204 24.7 24.4757 24.6897C24.4311 24.6794 24.3845 24.6807 24.3404 24.6934C24.2964 24.7062 24.2564 24.7301 24.2241 24.7628C24.1041 24.877 23.9841 24.973 23.8561 25.0816C23.4444 25.4402 22.9953 25.7536 22.5167 26.0165C21.6729 26.4684 20.7599 26.7774 19.815 26.9307C19.1545 27.0359 18.4837 27.0604 17.8173 27.0039C16.5676 26.9012 15.3569 26.5192 14.2745 25.8862C13.2003 25.2491 12.2788 24.3842 11.575 23.3525C10.9238 22.3889 10.4811 21.2997 10.2756 20.155C10.0701 19.0103 10.1062 17.8352 10.3816 16.7052C10.657 15.5752 11.1656 14.5153 11.8747 13.5935C12.5839 12.6717 13.478 11.9084 14.4996 11.3525C15.348 10.8952 16.2683 10.586 17.2207 10.4382C19.6287 10.053 21.9567 10.7982 23.687 12.1525C24.3977 12.7056 25.0081 13.3767 25.4916 14.1365C25.687 14.4119 26.1373 15.0336 26.6424 16.7319C27.0386 18.1205 27.3335 19.536 27.5247 20.9673C27.6207 21.653 27.679 22.1102 27.7533 23.0245C27.7659 23.1856 27.8139 23.9947 27.8139 24.0713C27.8156 24.5213 27.6389 24.9536 27.3224 25.2736ZM32.3018 24.6702C32.0064 24.955 31.6128 25.1154 31.2024 25.1182C30.7781 25.1182 30.3711 24.9496 30.0711 24.6495C29.771 24.3495 29.6024 23.9425 29.6024 23.5182L29.5853 23.1605C29.5618 22.1282 29.4805 21.098 29.3419 20.0748C29.1944 18.8656 29.0139 17.7068 28.791 16.6119C28.2618 13.99 27.4708 11.4278 26.4299 8.9639C26.2561 8.55933 26.095 8.1639 25.9419 7.85304C25.8399 7.67295 25.7674 7.47773 25.727 7.27475C25.7186 7.18178 25.7296 7.08808 25.7594 6.9996C25.7891 6.91112 25.837 6.8298 25.8999 6.7608C25.9627 6.6918 26.0393 6.63663 26.1246 6.5988C26.2099 6.56096 26.3022 6.5413 26.3956 6.54104C26.62 6.55736 26.8415 6.60151 27.055 6.67247C27.3605 6.76286 27.6528 6.89272 27.9247 7.05875C28.3835 7.32653 28.7829 7.68507 29.0984 8.11247C29.2861 8.37353 29.4495 8.65127 29.5864 8.94218C29.719 9.24161 29.8481 9.53761 29.975 9.84047C30.2756 10.557 30.5464 11.293 30.8184 12.0245C30.9898 12.4919 31.1441 12.9616 31.2984 13.4382C31.3807 13.6896 31.4721 13.9593 31.543 14.213C31.6401 14.5559 31.7578 14.9342 31.8596 15.3079C31.9098 15.493 31.9738 15.7182 32.0127 15.9239C32.0984 16.3365 32.1556 16.7468 32.2241 17.1456C32.3773 18.0428 32.4813 18.9548 32.5613 19.7445C32.7007 21.1159 32.7544 22.2245 32.7773 23.069C32.7773 23.1616 32.7864 23.4279 32.7864 23.5319C32.7849 23.7442 32.7412 23.9542 32.6581 24.1495C32.5749 24.3449 32.4538 24.5219 32.3018 24.6702Z" fill="#EB3223"/>
</svg>
