<svg width="40" height="40" viewBox="0 0 40 40" fill="none" xmlns="http://www.w3.org/2000/svg">
<rect width="40" height="40" rx="6" fill="white"/>
<path d="M30.5634 22.2256C27.4168 22.2407 25.1106 19.8686 25.0866 16.5914C25.0633 13.3694 27.3992 10.9264 30.5054 10.925C33.6697 10.925 35.9837 13.2713 35.9999 16.5019C36.0169 19.8263 33.7552 22.2106 30.5634 22.2256ZM27.619 16.6408C27.5801 17.0919 27.6791 17.6031 27.8762 18.0907C28.2756 19.0759 28.9703 19.7268 30.0262 19.9036C31.1005 20.0834 32.0653 19.8127 32.7311 18.9141C33.676 17.6382 33.734 16.2062 33.0781 14.8043C32.196 12.9212 29.6403 12.6563 28.33 14.2637C27.7907 14.9246 27.5978 15.7115 27.619 16.6401V16.6408Z" fill="#FFBC25"/>
<path d="M11.1865 20.6254C10.7052 21.3142 10.12 21.771 9.3842 22.0037C8.21025 22.3717 7.05185 22.3488 5.9719 21.6987C4.8347 21.012 4.32088 19.9702 4.45446 18.6306C4.58804 17.291 5.39659 16.4905 6.59739 16.053C7.47521 15.7329 8.41098 15.7014 9.32059 15.5389C9.66197 15.4773 10.0076 15.4423 10.3497 15.3843C11.19 15.2411 11.1921 14.5379 10.8946 13.8649C10.7709 13.5885 10.548 13.3701 10.2712 13.2542C9.46619 12.9076 8.66471 12.8747 7.87736 13.325C7.41089 13.595 7.14302 14.0124 7.01015 14.5286C6.91191 14.9088 6.88647 14.9232 6.50975 14.8351C5.99734 14.7162 5.48423 14.5931 4.97252 14.4857C4.70536 14.4291 4.63751 14.2974 4.70041 14.0296C5.00786 12.725 5.80864 11.835 7.00308 11.3381C8.47035 10.7274 9.97153 10.756 11.4282 11.3804C12.7442 11.9446 13.4171 13.0272 13.5047 14.4484C13.6029 16.0451 13.5224 17.6461 13.5422 19.2456C13.5478 19.7039 13.5104 20.1621 13.5768 20.6189C13.6326 21.0041 13.7888 21.3292 14.0941 21.5726C14.1698 21.6328 14.2567 21.6865 14.2122 21.8039C14.1677 21.9213 14.0638 21.9077 13.9705 21.9085C13.4969 21.9085 13.0227 21.9235 12.5498 21.9085C11.9229 21.8884 11.4515 21.5061 11.2727 20.9061C11.2522 20.833 11.2296 20.7643 11.1865 20.6254ZM11.0677 17.6941C11.0677 17.5394 11.0593 17.4428 11.0677 17.3475C11.0967 17.0855 11.0352 16.9852 10.7391 17.0568C10.373 17.1456 9.98779 17.1478 9.61744 17.2229C9.00113 17.3482 8.35726 17.3382 7.7664 17.5903C7.2137 17.8265 6.88435 18.3506 6.91827 18.9256C6.93319 19.2107 7.03704 19.4836 7.21486 19.705C7.39268 19.9265 7.63529 20.085 7.90775 20.1578C8.27364 20.2633 8.65796 20.286 9.03345 20.2241C9.40893 20.1622 9.76637 20.0174 10.0804 19.7998C10.8402 19.2958 11.0388 18.501 11.0677 17.6941Z" fill="#FFBC25"/>
<path d="M20.706 13.1339C20.706 10.9057 20.706 8.67724 20.706 6.44857C20.706 6.02899 20.7272 6.00823 21.1301 6.00751C21.8251 6.00751 22.5198 6.00751 23.2144 6.00751C23.6151 6.00751 23.6427 6.04045 23.6427 6.48437V18.4473C23.6427 18.8526 23.6363 19.2578 23.6427 19.6645C23.6582 20.5058 24.0484 21.123 24.7629 21.5361C24.8633 21.5941 24.9997 21.6221 24.9749 21.7746C24.941 21.955 24.7834 21.9092 24.6654 21.9099C24.0759 21.9142 23.4865 21.9178 22.8984 21.9099C21.6072 21.8948 20.7173 20.9984 20.7131 19.6903C20.7011 17.5058 20.706 15.3198 20.706 13.1339Z" fill="#FFBC25"/>
<path d="M15.1204 13.1124V6.49296C15.1204 6.02971 15.1416 6.00823 15.6031 6.00823C16.5601 6.00823 17.5178 6.00823 18.4754 6.00823C18.6239 6.00823 18.8104 5.94952 18.891 6.1457C18.9716 6.34189 18.809 6.44141 18.7157 6.55955C18.0464 7.4073 17.3693 8.25003 16.6965 9.09491C16.6315 9.17725 16.5481 9.25959 16.5205 9.35553C16.4618 9.55744 16.5777 9.6584 16.7679 9.66556C16.999 9.67487 17.2308 9.66556 17.4626 9.67129C17.9192 9.67773 18.0634 9.81449 18.0676 10.2878C18.0747 10.9486 18.0676 11.6095 18.0676 12.2704C18.0676 14.6685 18.0676 17.0666 18.0676 19.4647C18.0676 20.3819 18.4083 21.0958 19.2239 21.5411C19.3179 21.5934 19.4275 21.6385 19.4056 21.7703C19.378 21.9306 19.2402 21.9077 19.1271 21.9077C18.4853 21.9077 17.8436 21.9242 17.2018 21.9077C16.0251 21.8712 15.131 20.9361 15.1267 19.7318C15.119 17.5251 15.1267 15.3191 15.1267 13.1131L15.1204 13.1124Z" fill="#FFBC25"/>
<path d="M4 34.8229V23.1521H5.52522V28.1727H5.6171C5.7291 27.9717 5.85698 27.7801 5.99946 27.5999C6.18959 27.3628 6.42584 27.1678 6.69352 27.0271C6.98895 26.8639 7.38003 26.7823 7.86676 26.7823C8.46691 26.7723 9.05674 26.9411 9.56302 27.2677C10.0592 27.5913 10.4493 28.0582 10.7334 28.6682C11.0176 29.2782 11.1589 30.0119 11.1575 30.8692C11.1575 31.7284 11.0161 32.463 10.7334 33.073C10.4507 33.6831 10.0629 34.1537 9.57009 34.485C9.0684 34.8163 8.4804 34.9881 7.8816 34.9783C7.40571 34.9783 7.01722 34.8974 6.71613 34.7356C6.44423 34.5977 6.20356 34.4041 6.00936 34.1671C5.86306 33.9854 5.73164 33.7919 5.61639 33.5886H5.48917V34.8229H4ZM5.49483 30.8549C5.48508 31.3547 5.5663 31.852 5.73442 32.322C5.87046 32.7092 6.11061 33.0502 6.42777 33.3065C6.74831 33.5487 7.1405 33.6737 7.54023 33.6609C7.99539 33.6609 8.37611 33.5375 8.68238 33.2907C9.00092 33.0277 9.24178 32.6809 9.37855 32.2883C9.69325 31.3679 9.69524 30.3674 9.3842 29.4458C9.2491 29.0573 9.00853 28.7153 8.69015 28.4591C8.38247 28.2176 7.99916 28.0971 7.54023 28.0976C7.09779 28.0976 6.72438 28.2128 6.41999 28.4434C6.10334 28.6921 5.8637 29.0275 5.72948 29.41C5.56459 29.873 5.48506 30.3628 5.49483 30.8549Z" fill="#282828"/>
<path d="M14.8136 34.9991C14.3511 35.0055 13.8927 34.9092 13.4708 34.717C13.0835 34.5411 12.7536 34.2572 12.5195 33.8986C12.2867 33.5401 12.1703 33.1007 12.1703 32.5804C12.1703 32.1332 12.2554 31.7647 12.4255 31.4749C12.5919 31.189 12.8292 30.952 13.1138 30.7876C13.4168 30.6131 13.7432 30.4843 14.0828 30.4052C14.4428 30.3186 14.8074 30.2531 15.1748 30.209C15.646 30.1537 16.0267 30.1078 16.3169 30.0716C16.6072 30.0353 16.8192 29.9759 16.953 29.8933C17.0191 29.8507 17.0725 29.7906 17.1075 29.7196C17.1425 29.6486 17.1578 29.5693 17.1516 29.4902V29.4544C17.1516 29.0033 17.0268 28.6536 16.7771 28.4054C16.5273 28.1572 16.1556 28.0331 15.6618 28.0331C15.1477 28.0331 14.7439 28.1477 14.4504 28.3768C14.1834 28.5711 13.9727 28.8345 13.8404 29.1393L12.4106 28.8085C12.5584 28.3608 12.8153 27.9582 13.1577 27.6379C13.4853 27.3405 13.8725 27.1185 14.2927 26.987C14.7305 26.8496 15.1865 26.7808 15.6448 26.783C15.9801 26.7852 16.3143 26.8224 16.6421 26.894C16.9933 26.9676 17.3285 27.1049 17.6315 27.2992C17.9507 27.5091 18.2115 27.7982 18.3892 28.1391C18.5866 28.5028 18.6851 28.9739 18.6846 29.5525V34.8229H17.1919V33.7382H17.1304C17.0165 33.9587 16.8664 34.1579 16.6866 34.3275C16.4659 34.5353 16.208 34.6984 15.9268 34.8079C15.5714 34.9437 15.1934 35.0086 14.8136 34.9991ZM15.1451 33.759C15.5213 33.7695 15.8938 33.6823 16.2272 33.5055C16.5123 33.352 16.7506 33.1225 16.9163 32.8418C17.0721 32.5749 17.1539 32.2704 17.1531 31.9604V30.9372C17.0613 31.0115 16.9539 31.0637 16.8393 31.0897C16.6659 31.1404 16.4895 31.1801 16.3113 31.2086C16.1141 31.2415 15.9226 31.2709 15.7353 31.2966L15.266 31.3611C14.9912 31.3944 14.721 31.4585 14.4603 31.5523C14.2371 31.6283 14.0369 31.7609 13.8786 31.9375C13.7277 32.1239 13.6506 32.3604 13.6623 32.6012C13.6623 32.9831 13.8015 33.2716 14.08 33.4668C14.3585 33.6621 14.714 33.7594 15.1465 33.759H15.1451Z" fill="#282828"/>
<path d="M21.9061 30.1102V34.8229H20.3809V26.8861H21.8446V28.1749H21.9415C22.1179 27.7591 22.4133 27.4064 22.7896 27.1625C23.1755 26.9076 23.6627 26.7801 24.2512 26.7801C24.7406 26.7702 25.2243 26.8883 25.6556 27.1231C26.0603 27.3529 26.3858 27.7027 26.5885 28.1255C26.8095 28.5704 26.92 29.1193 26.92 29.7723V34.8208H25.3948V29.9606C25.3948 29.3878 25.247 28.9374 24.9516 28.6095C24.6562 28.2816 24.2498 28.1188 23.7324 28.1212C23.404 28.1146 23.0795 28.1948 22.791 28.3539C22.5143 28.5115 22.2893 28.7477 22.1436 29.0334C21.9772 29.3667 21.8956 29.7368 21.9061 30.1102Z" fill="#282828"/>
<path d="M33.5778 34.8229H35.45L32.0639 30.2928L35.2352 26.8861H33.4096L30.2878 30.2448H30.1549V23.024H28.6304V34.8229H30.1549V32.0069L30.9125 31.2394L33.5778 34.8229Z" fill="#282828"/>
</svg>
