<svg width="40" height="40" viewBox="0 0 40 40" fill="none" xmlns="http://www.w3.org/2000/svg">
<path d="M32.872 0H7.128C3.19131 0 0 3.19131 0 7.128V32.872C0 36.8087 3.19131 40 7.128 40H32.872C36.8087 40 40 36.8087 40 32.872V7.128C40 3.19131 36.8087 0 32.872 0Z" fill="#FFF6C2"/>
<path d="M8.23856 1.72754H31.7586C35.3522 1.72754 38.2706 4.64594 38.2706 8.23954V31.7595C38.2706 35.3531 35.3522 38.2715 31.7586 38.2715H8.23856C4.64496 38.2715 1.72656 35.3531 1.72656 31.7595V8.23954C1.72656 4.64594 4.64496 1.72754 8.23856 1.72754Z" fill="#103B99"/>
<path d="M28.1117 12.2934L23.6973 20.895H28.0045L28.8733 18.8246H31.5197L31.5341 20.895H35.3901L34.8701 8.82617H29.0541L27.1069 12.295H28.1117V12.2934ZM31.3917 12.783L31.4253 16.0662H29.9789L31.3901 12.783H31.3917Z" fill="white"/>
<path d="M10.4951 20.895C13.0855 20.895 15.0007 19.047 15.0007 17.0694C15.0007 16.2518 14.8903 15.0934 13.6007 14.623C14.8519 13.9926 15.9927 12.775 15.9927 11.399C15.9927 9.90622 14.8343 8.87262 12.9207 8.86142C11.3655 8.85022 7.83275 8.86142 7.83275 8.86142L5.96555 12.471L6.87275 12.4758L4.68555 20.895H10.4935H10.4951ZM10.5127 12.0278L11.6183 12.0326C11.9319 12.0326 12.5879 12.055 12.3959 12.8822C12.2215 13.6454 11.5223 13.7446 11.1271 13.7446H10.1015L10.5111 12.0278H10.5127ZM9.55755 15.8662H10.9239C11.4423 15.8662 11.8599 16.2982 11.6887 16.9446C11.5143 17.5878 10.8839 17.8454 10.3623 17.8454H9.03915L9.55595 15.8678L9.55755 15.8662Z" fill="white"/>
<path d="M21.0168 21.3234C21.7544 21.301 22.5928 21.1506 22.9784 21.0274L24.9048 17.0818C24.3464 17.5106 23.1784 18.117 22.0168 18.0914C19.9976 18.0466 19.2408 16.7826 19.2504 15.6722C19.2664 14.101 20.5544 12.4738 22.6888 12.4354C23.7736 12.4162 24.708 12.9106 25.4056 13.4722L27.2968 10.0978L24.7208 8.72656L24.3784 9.17616C24.0968 9.01616 23.6024 8.94416 23.2952 8.94416C18.2904 8.94416 15.3688 13.0386 15.3672 16.405C15.3672 18.9522 16.9208 21.4434 21.0136 21.3234H21.0168Z" fill="white"/>
<path d="M11.7067 25.8883C10.9803 25.8883 10.3195 26.2403 9.72594 26.9411C9.68114 26.6115 9.55634 26.3539 9.35314 26.1667C9.14834 25.9811 8.88274 25.8867 8.55634 25.8867C7.84594 25.8867 7.22194 26.2099 6.67954 26.8547L6.83474 26.0051H6.00594C5.93234 26.3811 5.81874 26.8579 5.66354 27.4355L4.65234 31.2083H5.58354L6.41554 28.1011C6.51474 27.7283 6.72434 27.4019 7.04434 27.1235C7.36274 26.8435 7.68114 26.7043 7.99794 26.7043C8.31474 26.7043 8.54834 26.8323 8.66834 27.0883C8.78674 27.3443 8.78834 27.6931 8.66834 28.1331L7.84434 31.2083H8.77554L9.63154 28.0163C9.73394 27.6323 9.93714 27.3187 10.2395 27.0723C10.5419 26.8275 10.8459 26.7043 11.1499 26.7043C11.5019 26.7043 11.7355 26.8419 11.8507 27.1187C11.9659 27.3939 11.9547 27.7907 11.8171 28.3059L11.0395 31.2083H11.9707L12.7803 28.1875C12.9819 27.4355 12.9771 26.8643 12.7643 26.4723C12.5515 26.0819 12.1995 25.8867 11.7083 25.8867L11.7067 25.8883Z" fill="white"/>
<path d="M17.0176 25.8877C16.2768 25.8877 15.5968 26.1373 14.9776 26.6381C14.3568 27.1373 13.9344 27.8093 13.7088 28.6509C13.496 29.4429 13.56 30.0877 13.8976 30.5837C14.2352 31.0797 14.7664 31.3277 15.4896 31.3277C15.9536 31.3277 16.416 31.2141 16.8752 30.9885C17.3344 30.7629 17.7312 30.4397 18.0656 30.0205C18.4 29.6013 18.6416 29.1117 18.792 28.5533C19.0016 27.7693 18.944 27.1277 18.616 26.6317C18.288 26.1357 17.7568 25.8877 17.0192 25.8877H17.0176ZM17.7888 28.5853C17.632 29.1725 17.3536 29.6525 16.9552 30.0253C16.5568 30.3981 16.1344 30.5837 15.688 30.5837C15.2416 30.5837 14.9376 30.3981 14.7472 30.0269C14.5568 29.6557 14.5376 29.1853 14.6896 28.6157C14.8416 28.0461 15.1088 27.5725 15.488 27.1949C15.8672 26.8173 16.2976 26.6285 16.7792 26.6285C17.2608 26.6285 17.576 26.8189 17.7488 27.2013C17.9216 27.5837 17.9344 28.0445 17.7904 28.5853H17.7888Z" fill="white"/>
<path d="M23.3216 25.8885C22.5168 25.8885 21.8464 26.2117 21.312 26.8565L22.1968 23.5557H21.224L19.5392 29.8437C19.384 30.4245 19.248 30.8789 19.1328 31.2085H19.9616L20.2336 30.3493C20.4512 31.0021 20.9472 31.3269 21.7216 31.3269C22.3664 31.3269 22.9808 31.0741 23.5648 30.5669C24.1488 30.0597 24.5552 29.3813 24.7824 28.5317C24.9904 27.7541 24.9584 27.1189 24.6832 26.6261C24.4096 26.1333 23.9552 25.8869 23.32 25.8869L23.3216 25.8885ZM23.8096 28.5765C23.6496 29.1749 23.3824 29.6501 23.0096 30.0037C22.6368 30.3573 22.2128 30.5333 21.7392 30.5333C21.3328 30.5333 21.032 30.3877 20.8352 30.0981C20.6384 29.8085 20.592 29.4693 20.696 29.0821L20.9232 28.2325C21.0336 27.8197 21.2704 27.4581 21.6352 27.1445C21.9984 26.8309 22.3856 26.6741 22.7952 26.6741C23.2592 26.6741 23.5808 26.8517 23.7616 27.2085C23.9424 27.5653 23.9584 28.0213 23.8096 28.5765Z" fill="white"/>
<path d="M25.1602 31.21H26.1122L27.5058 26.0068H26.5554L25.1602 31.21Z" fill="white"/>
<path d="M27.1369 23.9826C26.9897 24.1026 26.8937 24.2498 26.8473 24.4258C26.7993 24.605 26.8153 24.7554 26.8953 24.877C26.9753 24.9986 27.1033 25.0594 27.2809 25.0594C27.4585 25.0594 27.6297 24.9986 27.7753 24.877C27.9209 24.7554 28.0169 24.605 28.0649 24.4258C28.1113 24.2498 28.0937 24.1026 28.0121 23.9826C27.9305 23.8626 27.8025 23.8018 27.6281 23.8018C27.4537 23.8018 27.2841 23.8626 27.1369 23.9826Z" fill="white"/>
<path d="M29.6277 23.5557L27.5781 31.2101H28.5301L30.5797 23.5557H29.6277Z" fill="white"/>
<path d="M33.4653 25.8877C32.7245 25.8877 32.0637 26.1565 31.4813 26.6941C30.8989 27.2317 30.5005 27.8973 30.2877 28.6941C30.0749 29.4893 30.1325 30.1277 30.4605 30.6077C30.7885 31.0877 31.3389 31.3277 32.1101 31.3277C32.7757 31.3277 33.3821 31.2125 33.9325 30.9837L33.9565 30.2845C33.4957 30.4637 32.9901 30.5533 32.4413 30.5533C31.9357 30.5533 31.5661 30.4045 31.3277 30.1037C31.0909 29.8045 31.0413 29.3741 31.1773 28.8109H34.7693C34.8173 28.7069 34.8685 28.5565 34.9213 28.3597C35.1069 27.6685 35.0813 27.0829 34.8445 26.6045C34.6077 26.1261 34.1485 25.8877 33.4653 25.8877ZM34.0717 28.0909H31.3805C31.5581 27.6429 31.8109 27.2813 32.1357 27.0077C32.4621 26.7341 32.8173 26.5965 33.2029 26.5965C33.6093 26.5965 33.8845 26.7341 34.0317 27.0077C34.1789 27.2813 34.1917 27.6429 34.0717 28.0909Z" fill="white"/>
</svg>
