<svg width="40" height="40" viewBox="0 0 40 40" fill="none" xmlns="http://www.w3.org/2000/svg">
<rect width="40" height="40" rx="6" fill="white"/>
<path fill-rule="evenodd" clip-rule="evenodd" d="M4 19.1308L6.6996 22.4071L4 24.5594V19.1308Z" fill="#F15A23"/>
<path fill-rule="evenodd" clip-rule="evenodd" d="M5.08652 24.5594L7.11784 22.9245L8.52184 24.5594H5.08652Z" fill="#F15A23"/>
<path fill-rule="evenodd" clip-rule="evenodd" d="M4 17.3776L4.7045 18.235L7.60112 21.7174L8.53974 20.9983C8.53974 20.9983 7.76052 20.1157 7.23731 19.1307C6.21437 17.2051 6.93858 16.0063 6.93858 16.0063H4V17.3776Z" fill="#F15A23"/>
<path fill-rule="evenodd" clip-rule="evenodd" d="M8.01397 22.255L8.96988 21.4953C8.96988 21.4953 9.88285 22.6516 10.9415 22.9245C12.3287 23.2821 12.9429 22.4071 12.9429 22.4071V24.5594H9.89592L10.583 23.9879C10.583 23.9879 10.2245 24.2178 9.34781 23.6335C8.83037 23.2887 8.01397 22.255 8.01397 22.255Z" fill="#F15A23"/>
<path fill-rule="evenodd" clip-rule="evenodd" d="M8.10191 16C8.10191 16 7.79696 16.3997 8.01403 17.3776C8.24604 18.4229 9.16878 19.5291 9.16663 19.5044C9.16663 19.5044 9.22595 18.4059 9.89598 17.7612C11.3242 16.3872 12.943 17.2052 12.943 17.2052V16.0063L8.10191 16Z" fill="#F15A23"/>
<path fill-rule="evenodd" clip-rule="evenodd" d="M12.9429 18.6537C12.9429 18.6537 12.0397 17.9094 11.2545 17.9094C10.25 17.9094 9.70176 18.7437 9.70176 19.3489C9.70176 20.2305 10.1416 20.7203 10.583 21.145C11.2174 21.7553 11.9891 22.4136 12.9429 21.8838C12.9429 20.8811 12.9429 18.6537 12.9429 18.6537Z" fill="#F15A23"/>
<path fill-rule="evenodd" clip-rule="evenodd" d="M23.2287 16.0897H25.36C25.36 16.0897 27.248 18.8401 28.1759 19.9764C29.1038 21.1128 30.1025 22.4071 30.1025 22.4071C30.1025 22.4071 30.1025 18.6537 30.1025 16.7056C30.1025 16.4594 29.4305 16.0897 29.4305 16.0897H31.8882C31.8882 16.0897 31.0818 16.4084 31.0818 16.7056C31.0818 19.1308 31.0818 25 31.0818 25C31.0818 25 30.308 24.5872 29.4305 23.6062C28.4446 22.504 24.9376 18.0542 24.9376 18.0542C24.9376 18.0542 24.9376 22.255 24.9376 23.8177C24.9376 24.1129 25.6096 24.5594 25.6096 24.5594H23.2287C23.2287 24.5594 23.8815 24.1093 23.8815 23.8177C23.8815 21.7174 23.8815 18.6537 23.8815 16.7056C23.8815 16.4439 23.2287 16.0897 23.2287 16.0897Z" fill="#005E6A"/>
<path fill-rule="evenodd" clip-rule="evenodd" d="M33.2647 16.0897H36C36 16.0897 35.2655 16.4244 35.2655 16.7056C35.2655 18.6537 35.2655 21.8838 35.2655 23.8177C35.2655 24.1251 36 24.5594 36 24.5594H33.2647C33.2647 24.5594 33.9485 24.1152 33.9485 23.8177C33.9485 21.4953 33.9485 18.6537 33.9485 16.7056C33.9485 16.4352 33.2647 16.0897 33.2647 16.0897Z" fill="#005E6A"/>
<path fill-rule="evenodd" clip-rule="evenodd" d="M15.1811 16.0897C15.1811 16.0897 15.8902 16.4299 15.8902 16.7056C15.8902 18.6537 15.8902 21.4953 15.8902 23.8177C15.8902 24.1201 15.1811 24.5594 15.1811 24.5594C15.1811 24.5594 18.7238 24.5594 19.2334 24.5594C19.4867 24.5594 22.3233 24.1131 22.3233 22.0091C22.3233 19.905 20.1199 19.708 20.1199 19.708C20.1199 19.708 21.4622 19.3489 21.4622 17.9094C21.4622 16.3577 19.4867 16.0897 19.2334 16.0897C18.7071 16.0897 15.1811 16.0897 15.1811 16.0897ZM17.3339 19.5685V16.9206C17.3339 16.9206 18.5085 16.9206 18.9801 16.9206C19.2334 16.9206 20.1199 17.2052 20.1199 18.2607C20.1199 19.1308 19.2334 19.5685 18.9801 19.5685C18.4059 19.5685 17.3339 19.5685 17.3339 19.5685ZM17.3339 20.263C17.3339 20.263 18.9801 20.263 19.2334 20.263C19.4867 20.263 20.981 20.6365 20.981 21.8838C20.981 23.1555 19.4867 23.6062 19.2334 23.6062C18.9801 23.6062 17.3339 23.6062 17.3339 23.6062V20.263Z" fill="#005E6A"/>
</svg>
