<svg width="40" height="40" viewBox="0 0 40 40" fill="none" xmlns="http://www.w3.org/2000/svg">
<rect width="40" height="40" rx="6" fill="#00529C"/>
<path d="M32.3077 1H7.69233C3.3846 1 0 5.29 0 10.75V30.25C0 35.71 3.3846 40 7.69233 40H32.3077C36.6153 40 40 35.71 40 30.25V10.75C40 5.29 36.6153 1 32.3077 1Z" fill="#00529C"/>
<path d="M12.6541 32.2249V27.8968C12.6541 27.5323 12.7091 27.178 12.8192 26.8338C13.0793 26.0238 13.4945 25.3759 14.0648 24.8899C14.6851 24.3533 15.3954 24.0851 16.1958 24.0851C17.0562 24.0851 17.8666 24.4445 18.627 25.1633C19.3173 24.4445 20.1227 24.0851 21.0431 24.0851C21.8435 24.0851 22.5589 24.3483 23.1892 24.8747C23.8195 25.4012 24.2397 26.0694 24.4498 26.8793C24.5498 27.264 24.5999 27.5779 24.5999 27.8209V32.2249H22.3938V27.9424C22.3738 27.7804 22.3638 27.6893 22.3638 27.669C22.2937 27.3147 22.1487 27.0109 21.9286 26.7578C21.6785 26.4744 21.3883 26.3326 21.0582 26.3326C20.728 26.3326 20.4379 26.4744 20.1877 26.7578C19.9776 27.0109 19.8376 27.3147 19.7675 27.669C19.7575 27.7399 19.7475 27.831 19.7375 27.9424V32.2249H17.5164V27.8968C17.4964 27.7449 17.4864 27.6639 17.4864 27.6538C17.4164 27.2995 17.2713 26.9958 17.0512 26.7426C16.8011 26.4693 16.511 26.3326 16.1808 26.3326C15.8006 26.3326 15.4805 26.5199 15.2203 26.8945C14.9802 27.2286 14.8602 27.5981 14.8602 28.0031V32.2249H12.6541Z" fill="#F36F21"/>
<path d="M25.1401 28.155C25.1401 27.0413 25.5303 26.0896 26.3107 25.3C27.0911 24.5103 28.0265 24.1154 29.117 24.1154C30.2276 24.1154 31.178 24.5103 31.9684 25.3C32.7588 26.0896 33.154 27.0464 33.154 28.1702C33.154 29.2737 32.7588 30.2254 31.9684 31.0252C31.188 31.825 30.2476 32.2249 29.1471 32.2249C28.0365 32.2249 27.0911 31.83 26.3107 31.0403C25.5303 30.2405 25.1401 29.2787 25.1401 28.155ZM27.3462 28.155C27.3462 28.6612 27.5213 29.0914 27.8714 29.4458C28.2216 29.8001 28.6468 29.9773 29.1471 29.9773C29.6373 29.9773 30.0575 29.8001 30.4077 29.4458C30.7678 29.0813 30.9479 28.6511 30.9479 28.155C30.9479 27.6589 30.7678 27.2337 30.4077 26.8793C30.0475 26.525 29.6223 26.3478 29.1321 26.3478C28.6418 26.3478 28.2216 26.525 27.8714 26.8793C27.5213 27.2337 27.3462 27.6589 27.3462 28.155Z" fill="#F36F21"/>
<path d="M16.0586 14.4065C16.15 14.316 16.258 14.1996 16.3825 14.0572C16.5068 13.9147 16.6245 13.7465 16.7357 13.5521C16.8469 13.3579 16.9419 13.1414 17.0202 12.9018C17.099 12.6624 17.1383 12.4067 17.1383 12.1349C17.1383 11.6045 17.0466 11.1095 16.8635 10.6498C16.6801 10.1905 16.3987 9.78907 16.0192 9.44586C15.6397 9.10329 15.1655 8.8344 14.5961 8.64011C14.0269 8.44616 13.3625 8.34901 12.6037 8.34901H7.59795V21.9394H13.0945C13.8926 21.9394 14.5892 21.8326 15.185 21.619C15.7802 21.4054 16.2745 21.1111 16.6671 20.7357C17.0596 20.3604 17.3507 19.9235 17.5406 19.4253C17.7302 18.9271 17.8251 18.3931 17.8251 17.8234C17.8251 17.0598 17.6485 16.3805 17.2954 15.7848C16.9418 15.1897 16.5295 14.7301 16.0586 14.4065ZM13.6282 10.8393C13.8133 10.9091 13.9677 10.9998 14.0884 11.1139C14.401 11.4105 14.5574 11.765 14.5574 12.1773C14.5574 12.5514 14.492 12.8605 14.3619 13.1053C14.2315 13.3504 14.1011 13.5373 13.971 13.666H10.15V10.6787H12.5251C12.9703 10.6787 13.3368 10.7331 13.6282 10.8393ZM13.2318 16.018C13.9235 16.018 14.4361 16.1952 14.7698 16.5491C15.0836 16.8974 15.2417 17.3085 15.2417 17.7842C15.2417 18.2744 15.0625 18.6929 14.7041 19.0409C14.3453 19.389 13.7561 19.5633 12.9349 19.5633H10.15V16.018H13.2318ZM27.1441 16.0859C27.5561 15.8077 27.8999 15.4841 28.1747 15.1151C28.4495 14.7462 28.6521 14.3386 28.7832 13.8922C28.9139 13.4454 28.9796 12.9893 28.9796 12.5232C28.9796 11.9149 28.8778 11.3553 28.6752 10.8438C28.4719 10.3327 28.1678 9.89268 27.7623 9.52371C27.3564 9.15477 26.8494 8.86688 26.2409 8.65975C25.6324 8.45292 24.929 8.34902 24.1309 8.34902H18.7226V21.9394H21.324V16.8916H22.7745L26.362 21.9394H29.4113L25.7015 16.717C26.2508 16.5748 26.7317 16.3644 27.1441 16.0859ZM24.1505 10.6788C24.306 10.6788 24.4613 10.6884 24.6156 10.7077C25.0794 10.7768 25.4582 10.9406 25.7503 11.2008C26.1477 11.5556 26.3464 11.9905 26.3464 12.5058C26.3466 12.7625 26.3036 13.0174 26.2193 13.2601C26.136 13.5027 25.9991 13.7239 25.8186 13.9076C25.6358 14.0948 25.4013 14.2459 25.1148 14.3621C24.8279 14.4782 24.4826 14.5361 24.0787 14.5361H21.3241V10.6788L24.1505 10.6788ZM30.33 8.34902V8.35262L30.2517 8.34902H30.2296V21.9394H32.8821V8.34899L30.33 8.34902Z" fill="white"/>
</svg>
