<svg width="40" height="40" viewBox="0 0 40 40" fill="none" xmlns="http://www.w3.org/2000/svg">
<rect width="40" height="40" rx="6" fill="#008CEB"/>
<g clip-path="url(#clip0_880_2935)">
<path fill-rule="evenodd" clip-rule="evenodd" d="M16.8585 22.8262C17.4287 22.8691 18.0931 22.4043 18.3271 22.139C19.1407 21.2152 19.1603 19.8795 18.3412 18.9121C18.0365 18.552 17.3203 18.154 16.8671 18.21H15.2266V22.8204L16.8624 22.8262H16.8585ZM16.1517 21.8275V19.203C16.4085 19.1853 16.6661 19.1853 16.9229 19.203C17.125 19.2276 17.3177 19.3058 17.4828 19.4304C18.4253 20.1061 18.0326 21.7171 16.9072 21.825C16.6557 21.8436 16.4033 21.8444 16.1517 21.8275Z" fill="white"/>
<path fill-rule="evenodd" clip-rule="evenodd" d="M31.2612 22.8345H32.1965V21.8407H34.0523L34.0578 22.8295H34.9931V21.1914C34.9931 20.697 35.0324 20.0806 34.9146 19.6331C34.8076 19.2235 34.5759 18.8618 34.2547 18.6033C33.9335 18.3448 33.5406 18.2036 33.1358 18.2013C32.731 18.1989 32.3366 18.3356 32.0127 18.5904C31.6889 18.8452 31.4534 19.2042 31.3421 19.6125C31.2164 20.0542 31.2588 20.6879 31.2588 21.1782C31.2588 21.7319 31.2533 22.289 31.2588 22.8427L31.2612 22.8345ZM32.1973 20.8412C32.1918 20.4291 32.1502 19.9883 32.3348 19.671C32.4158 19.525 32.5322 19.404 32.6722 19.3205C32.8122 19.237 32.9708 19.1939 33.1319 19.1956C33.2921 19.1968 33.4493 19.2417 33.588 19.3257C33.7268 19.4098 33.8424 19.5302 33.9235 19.6752C34.1057 20.0048 34.0625 20.4168 34.0578 20.842L32.1973 20.8412Z" fill="white"/>
<path fill-rule="evenodd" clip-rule="evenodd" d="M20.5656 22.8337H21.4978C21.4978 22.626 21.4726 21.9907 21.5064 21.8399H23.3551L23.3614 22.8328H24.2951C24.2904 22.2824 24.2951 21.7328 24.2951 21.1848C24.2951 20.7151 24.3368 20.0427 24.2166 19.6257C24.1089 19.2166 23.8768 18.8557 23.5556 18.5977C23.2344 18.3398 22.8417 18.1991 22.4372 18.1969C22.0327 18.1948 21.6386 18.3314 21.315 18.5859C20.9913 18.8404 20.7557 19.1989 20.6441 19.6068C20.5192 20.0353 20.5616 20.6904 20.5616 21.1675C20.5616 21.7179 20.5498 22.2824 20.5616 22.8312L20.5656 22.8337ZM21.4985 20.8412C21.4923 20.4292 21.4522 19.9825 21.6368 19.6719C21.7177 19.5262 21.8337 19.4053 21.9731 19.3213C22.1125 19.2373 22.2704 19.1931 22.4311 19.1931C22.5919 19.1931 22.7498 19.2373 22.8892 19.3213C23.0285 19.4053 23.1445 19.5262 23.2255 19.6719C23.4085 20.0015 23.3645 20.4201 23.3614 20.8395L21.4985 20.8412Z" fill="white"/>
<path fill-rule="evenodd" clip-rule="evenodd" d="M25.9354 20.0105L25.922 20.697C25.922 21.2738 25.8953 22.3508 25.922 22.8196H26.8362C26.8574 22.49 26.8032 20.149 26.8605 20.074C26.8605 19.6191 27.3136 19.1956 27.7707 19.1939C28.0083 19.1924 28.2371 19.2882 28.4084 19.4609C28.5246 19.5722 28.7029 19.826 28.6998 20.0822C28.7422 20.1078 28.7084 22.5543 28.7218 22.8254H29.6367L29.6296 20.0279C29.6524 19.8087 29.5267 19.47 29.4458 19.2986C29.2958 18.972 29.0617 18.696 28.7699 18.5019C28.4781 18.3078 28.1403 18.2032 27.7948 18.2001C27.4493 18.1971 27.1099 18.2955 26.815 18.4844C26.5201 18.6733 26.2815 18.9451 26.1262 19.2689C26.0477 19.4378 25.9157 19.7856 25.9354 20.0105Z" fill="white"/>
<path d="M9.28874 25C11.6574 25 13.5775 22.9853 13.5775 20.5C13.5775 18.0147 11.6574 16 9.28874 16C6.92014 16 5 18.0147 5 20.5C5 22.9853 6.92014 25 9.28874 25Z" fill="white"/>
<path d="M11.7882 20.519V21.7855C11.7882 21.8679 11.7544 21.8852 11.6885 21.8448C11.6002 21.7892 11.5084 21.7402 11.4136 21.6981C11.1274 21.5785 10.8173 21.5352 10.5112 21.5721C10.1771 21.6175 9.84927 21.7038 9.53427 21.8292C9.22013 21.9404 8.91228 22.0607 8.59186 22.1538C8.32647 22.2365 8.05028 22.2746 7.77354 22.2667C7.46684 22.2542 7.16877 22.1567 6.90966 21.9841C6.87711 21.9635 6.8504 21.9342 6.8323 21.8991C6.81421 21.864 6.8054 21.8245 6.80678 21.7847C6.80678 20.9551 6.80678 20.1256 6.80678 19.2961C6.80678 19.2557 6.80678 19.2079 6.84134 19.1873C6.87589 19.1667 6.91123 19.2005 6.94107 19.2211C7.22244 19.4207 7.55568 19.5243 7.89526 19.5178C8.13808 19.5073 8.37821 19.4604 8.60835 19.3785C8.93505 19.2722 9.25076 19.1313 9.57196 19.0118C9.822 18.911 10.0784 18.8284 10.3392 18.7646C10.5631 18.7096 10.7955 18.7038 11.0216 18.7476C11.2477 18.7915 11.4627 18.8839 11.6531 19.0192C11.6968 19.0473 11.7325 19.087 11.7567 19.1344C11.7808 19.1818 11.7925 19.235 11.7905 19.2887C11.7905 19.7007 11.7905 20.1127 11.7905 20.5247L11.7882 20.519Z" fill="#008CEB"/>
</g>
<defs>
<clipPath id="clip0_880_2935">
<rect width="30" height="9" fill="white" transform="translate(5 16)"/>
</clipPath>
</defs>
</svg>
