<svg width="40" height="40" viewBox="0 0 40 40" fill="none" xmlns="http://www.w3.org/2000/svg">
<rect width="40" height="40" rx="6" fill="white"/>
<path d="M7.49265 24C9.42158 24 10.9853 22.433 10.9853 20.5C10.9853 18.567 9.42158 17 7.49265 17C5.56371 17 4 18.567 4 20.5C4 22.433 5.56371 24 7.49265 24Z" fill="#00AED6"/>
<path d="M7.49265 24C9.42158 24 10.9853 22.433 10.9853 20.5C10.9853 18.567 9.42158 17 7.49265 17C5.56371 17 4 18.567 4 20.5C4 22.433 5.56371 24 7.49265 24Z" fill="#00AED6"/>
<path fill-rule="evenodd" clip-rule="evenodd" d="M9.52727 20.391C9.50153 19.9466 9.12411 19.6054 8.6803 19.6254H6.47411C6.39374 19.6254 6.32859 19.5601 6.32859 19.4795C6.32859 19.399 6.39374 19.3337 6.47411 19.3337H8.70939C8.69731 19.0311 8.49137 18.7711 8.20005 18.6906C7.54876 18.5754 6.88238 18.5754 6.2311 18.6906C5.86087 18.782 5.58393 19.0907 5.53257 19.4693C5.42925 20.1562 5.42925 20.8547 5.53257 21.5416C5.61122 21.9414 5.92785 22.2512 6.3286 22.3204C7.13705 22.421 7.95481 22.421 8.76326 22.3204C9.12279 22.2466 9.39483 21.9505 9.43853 21.5854C9.51091 21.1916 9.54067 20.7912 9.52727 20.391ZM8.80254 20.881V21.0108C8.80254 21.0913 8.73739 21.1566 8.65702 21.1566C8.57665 21.1566 8.51149 21.0913 8.51149 21.0108V20.881C8.46499 20.8402 8.43844 20.7811 8.43872 20.7191C8.43872 20.5983 8.53646 20.5004 8.65702 20.5004C8.77758 20.5004 8.87531 20.5983 8.87531 20.7191C8.87559 20.7811 8.84905 20.8402 8.80254 20.881V20.881Z" fill="white"/>
<path d="M13.7472 22.2423C14.0436 22.6661 14.5365 22.9075 15.0523 22.8814C15.6606 22.8814 16.108 22.4921 16.108 21.9629V21.6837H16.0932C15.76 22.0101 15.305 22.1808 14.8398 22.154C14.1048 22.1751 13.4158 21.7967 13.0383 21.1644C12.6607 20.5321 12.6536 19.7448 13.0196 19.1057C13.3856 18.4667 14.0676 18.0757 14.8028 18.0835C15.2769 18.053 15.7429 18.2175 16.0932 18.5389H16.108V18.157H17.1494V21.9483C17.1494 23.0503 16.2768 23.8145 15.0524 23.8145C14.2503 23.8584 13.4759 23.5141 12.9701 22.8888L13.7472 22.2423ZM16.0642 19.8836C16.0642 19.4427 15.5657 19.0385 15.0086 19.0385C14.3042 19.0385 13.8353 19.4649 13.8353 20.1041C13.8144 20.4069 13.928 20.7035 14.1456 20.9146C14.3633 21.1257 14.6629 21.2298 14.9642 21.1989C15.5731 21.1989 16.0642 20.8167 16.0642 20.339V19.8836ZM19.8769 18.0467C21.1457 18.0467 22.0695 18.9505 22.0695 20.1041C22.0695 21.2576 21.1457 22.1614 19.8769 22.1614C19.1113 22.2117 18.3814 21.8309 17.9834 21.1736C17.5854 20.5164 17.5854 19.6918 17.9834 19.0345C18.3814 18.3772 19.1113 17.9964 19.8769 18.0467ZM19.8769 19.0018C19.2705 19.0059 18.7818 19.5012 18.7845 20.1089C18.7873 20.7166 19.2804 21.2074 19.8868 21.2061C20.4933 21.2048 20.9842 20.7118 20.9843 20.1041C20.998 19.8064 20.8855 19.5168 20.6746 19.3068C20.4636 19.0968 20.1738 18.986 19.8769 19.0018ZM22.6561 18.157H23.6976V18.5022H23.7123C24.0526 18.1886 24.504 18.0246 24.9658 18.0467C26.0838 18.0669 26.9802 18.9799 26.9822 20.1004C26.9842 21.221 26.0911 22.1371 24.9732 22.1614C24.5319 22.1716 24.101 22.0259 23.7561 21.7498H23.7413V23.7043H22.6561V18.157ZM24.7975 19.0092C24.2251 19.0092 23.7413 19.4133 23.7413 19.8543V20.3465C23.7413 20.8167 24.2109 21.2061 24.8044 21.2061C25.4097 21.2042 25.899 20.7109 25.8971 20.1042C25.8952 19.4975 25.4029 19.0073 24.7975 19.0092ZM29.028 19.7292C29.7392 19.6338 29.9518 19.531 29.9518 19.3325C29.9518 19.0753 29.6806 18.9212 29.2628 18.9212C28.8126 18.883 28.4018 19.1791 28.2947 19.619L27.2681 19.4059C27.4147 18.6124 28.2288 18.0467 29.2333 18.0467C30.3696 18.0467 31.074 18.6272 31.074 19.5748V22.0512H30.0985V21.6251H30.0837C29.753 21.9984 29.268 22.1966 28.7711 22.1614C27.9133 22.1614 27.3198 21.6911 27.3198 21.0004C27.3198 20.273 27.8036 19.8984 29.028 19.7292ZM30.0399 20.1408H30.0251C29.9296 20.2804 29.7244 20.3613 29.1969 20.4567C28.5585 20.5743 28.3317 20.6991 28.3317 20.9269C28.3317 21.1622 28.5221 21.265 28.9325 21.265C29.5561 21.265 30.0399 20.9785 30.0399 20.6037V20.1408ZM33.0386 21.8381L31.2422 18.157H32.4377L33.6178 20.6991H33.6326L34.7985 18.157H36.0008L33.3103 23.7043H32.1148L33.0386 21.8381Z" fill="black"/>
</svg>
