<svg width="40" height="40" viewBox="0 0 40 40" fill="none" xmlns="http://www.w3.org/2000/svg">
<rect width="40" height="40" rx="6" fill="white"/>
<path d="M32.899 19.7943C32.7882 19.7295 32.506 19.6216 32.3125 20.2097C32.1189 20.7978 31.7205 21.8446 31.4771 22.2819C31.2337 22.7191 30.9075 22.924 30.7689 22.5032C30.6307 22.0824 30.5145 20.7978 30.4647 19.7778C30.4148 18.7578 30.5394 17.8351 29.5351 17.6248C28.5307 17.4143 27.9417 17.9809 27.7093 18.3778C27.4769 18.7743 26.3981 20.7656 26.3981 20.7656C26.3981 20.7656 26.3482 19.8833 26.4644 18.815C26.5806 17.7464 26.6305 17.2527 26.448 16.9938C26.2654 16.7346 25.3193 16.2734 25.029 16.7428C24.7387 17.2123 24.2571 18.6127 23.9503 19.3817C23.6431 20.1507 22.9129 22.1256 22.4481 22.1256C21.9833 22.1256 22.1574 19.7943 22.3568 19.244C22.5559 18.6935 22.7384 18.297 22.7384 17.7872C22.7384 17.2773 22.4976 16.913 21.8422 16.7915C21.1864 16.6699 20.8382 17.1801 20.6139 17.9083C20.3899 18.637 20.2239 19.5193 20.1989 20.3935C20.1989 20.3935 19.6429 21.3648 18.3482 21.2676C18.3482 21.2676 18.6469 20.3205 18.8214 19.7378C18.9955 19.155 19.2943 17.8597 18.5975 17.4472C17.9003 17.0342 16.9208 17.0668 16.4315 17.7224C15.9418 18.3781 15.8175 19.2523 15.8838 19.8836C15.9502 20.515 16.3402 21.2923 16.6972 21.6484C16.6972 21.6484 16.191 22.8868 15.9835 23.4131C15.7761 23.9393 15.6434 24.166 15.4275 24.166C15.2116 24.166 15.0125 23.8746 14.7966 23.1864C14.5807 22.4985 14.3483 21.7131 14.249 20.677C14.1493 19.6409 14.1163 18.4024 13.8341 17.9409C13.5518 17.4793 13.2091 17.4311 12.9378 17.4311C12.6666 17.4311 12.1329 17.7142 11.9833 18.2891C11.8338 18.864 11.4995 20.2966 11.112 21.1868C10.7246 22.0774 10.3151 22.5361 10.188 21.8128C10.0608 21.0896 10.2404 19.746 10.3236 19.2684C10.4064 18.7907 10.8961 18.1 10.8906 17.8733C10.8851 17.6466 10.6308 16.9613 9.95006 16.9666C9.26937 16.972 9.10368 17.474 8.94313 17.9219C8.78258 18.3699 8.43949 19.4546 8.16567 20.6284C7.89185 21.8021 7.67045 22.7949 7.13382 22.7949C6.80172 22.7949 6.50848 22.3848 6.34243 21.5375C6.17638 20.6902 6.01619 18.9148 6.01619 16.2491C6.01619 16.2491 6.65803 15.4154 7.13382 13.8452C7.60851 12.2742 7.54216 10.8577 6.62907 11.0115C5.71635 11.1652 5.01916 12.5252 4.63758 14.0793C4.25563 15.6335 3.74649 20.3824 4.14493 22.2172C4.34837 23.1535 4.94439 24.3029 6.23979 24.408C7.57038 24.516 8.17483 23.5114 8.47944 22.6433C8.47944 22.6433 9.39509 24.3648 10.1806 24.3648C10.9661 24.3648 11.5167 22.9751 11.8155 21.1217C11.8155 21.1217 12.3107 24.0412 12.7645 24.8939C13.2183 25.7466 13.7824 26.4155 15.0217 26.4155C16.261 26.4155 16.7812 25.5521 17.0579 24.7427C17.3347 23.9333 17.9651 22.2926 17.9651 22.2926C17.9651 22.2926 18.9776 22.4492 20.2557 21.5425C20.2557 21.5425 20.2972 23.1939 20.9944 23.7684C21.6915 24.343 22.2975 24.2675 22.7234 23.8035C23.1493 23.3394 23.7747 22.0767 23.9154 21.7284C23.9154 21.7284 23.841 22.9075 23.9513 23.3122C24.062 23.717 24.7427 24.3322 25.5503 24.3322C26.3578 24.3322 26.5795 23.7709 26.8006 23.2583C27.022 22.7456 28.1975 20.6194 28.1975 20.6194C28.1975 20.6194 28.3636 22.3598 28.5795 23.1771C28.7954 23.9947 29.4093 24.9822 30.3888 24.9822C31.3682 24.9822 32.248 22.6508 32.6878 21.3881C33.1277 20.1253 33.0089 19.8583 32.8982 19.7935L32.899 19.7943ZM6.32227 13.3185C6.49638 12.3875 7.10229 11.9828 7.00296 12.833C6.90325 13.6828 6.49675 14.6299 6.16465 15.2777C6.16465 15.2777 6.14815 14.2495 6.32227 13.3185ZM17.103 20.3609C16.8263 19.9562 16.7933 19.4761 16.9758 19.2276C17.1584 18.9795 17.4406 19.0656 17.4791 19.3735C17.5176 19.6809 17.103 20.3609 17.103 20.3609Z" fill="#69B1E2"/>
<path d="M9.89911 13.2942C9.81297 13.4976 10.0318 13.9824 10.5798 14.3707C11.1274 14.7593 11.6835 14.5244 11.9324 14.2735C12.1813 14.0225 12.5134 13.4479 11.9324 13.0675C11.3514 12.6871 10.7788 13.0715 10.5714 13.2091C10.3639 13.3468 10.0278 12.9907 9.89911 13.2942Z" fill="#69B1E2"/>
<path d="M21.8499 13.2942C21.7638 13.4976 21.9826 13.9824 22.5306 14.3707C23.0782 14.7593 23.6343 14.5244 23.8832 14.2735C24.1321 14.0225 24.4642 13.4479 23.8832 13.0675C23.3022 12.6871 22.7296 13.0715 22.5222 13.2091C22.3147 13.3468 21.9785 12.9907 21.8499 13.2942Z" fill="#69B1E2"/>
<path d="M34.3095 16.2055C34.3267 16.4314 34.0081 16.5887 34.0745 16.7668C34.1408 16.9448 34.3402 17.3656 34.9377 16.9531C35.5352 16.5401 36 15.9738 36 15.1236C36 14.2735 35.4179 13.9581 35.0323 13.9581C34.6467 13.9581 34.1075 14.5734 34.1075 15.326C34.1075 15.8844 34.2955 16.0249 34.3095 16.2055Z" fill="#FDB515"/>
<path d="M18.6777 28.3082C18.6839 28.2049 18.6905 28.0515 18.6905 27.9171V26.0862H18.9698V27.0376H18.9761C19.0754 26.8685 19.2554 26.7591 19.5054 26.7591C19.8903 26.7591 20.1633 27.0719 20.16 27.532C20.16 28.0733 19.8103 28.3425 19.4636 28.3425C19.2389 28.3425 19.0593 28.2581 18.9438 28.0576H18.9343L18.9215 28.3078L18.6777 28.3082ZM18.9698 27.7011C18.9698 27.7355 18.9761 27.7701 18.9827 27.8012C19.0373 27.9922 19.2008 28.1237 19.406 28.1237C19.7011 28.1237 19.8778 27.8888 19.8778 27.5417C19.8778 27.2381 19.7172 26.9782 19.4156 26.9782C19.2231 26.9782 19.0435 27.1066 18.9856 27.3161C18.9794 27.3475 18.9695 27.3851 18.9695 27.4287L18.9698 27.7011Z" fill="#69B1E2"/>
<path d="M20.5966 26.7934L20.9368 27.6886C20.972 27.7887 21.0104 27.9078 21.0361 27.9986H21.0423C21.0713 27.9078 21.1032 27.7919 21.1417 27.6825L21.4496 26.7938H21.748L21.3246 27.8735C21.1222 28.3929 20.9844 28.6589 20.792 28.8216C20.6542 28.9407 20.516 28.9875 20.4456 29L20.3748 28.7683C20.4456 28.7465 20.5383 28.7025 20.6219 28.6339C20.6989 28.5746 20.7953 28.468 20.8594 28.3272C20.8723 28.2989 20.8818 28.2771 20.8818 28.2614C20.8818 28.2456 20.8756 28.2238 20.8624 28.1895L20.288 26.7938H20.5959L20.5966 26.7934Z" fill="#69B1E2"/>
<path d="M22.6629 27.2378C22.6629 27.0626 22.6596 26.9153 22.65 26.7841H22.9902L23.0063 27.0093H23.0159C23.0928 26.8903 23.234 26.7494 23.4972 26.7494C23.7024 26.7494 23.863 26.862 23.9304 27.0311H23.937C23.9916 26.9468 24.0558 26.8842 24.1295 26.8402C24.216 26.7809 24.3157 26.7494 24.444 26.7494C24.7039 26.7494 24.967 26.9214 24.967 27.4098V28.3078H24.5822V27.4659C24.5822 27.2124 24.4924 27.0622 24.3028 27.0622C24.1679 27.0622 24.0686 27.1563 24.0268 27.2657C24.0173 27.3032 24.0074 27.3501 24.0074 27.394V28.3078H23.6225V27.4251C23.6225 27.2124 23.536 27.0622 23.3531 27.0622C23.2054 27.0622 23.106 27.1749 23.0709 27.2814C23.0547 27.3189 23.0485 27.3629 23.0485 27.4065V28.3078H22.6636V27.2374L22.6629 27.2378Z" fill="#262262"/>
<path d="M26.2632 28.3082L26.2375 28.1391H26.228C26.1316 28.2582 25.9681 28.3425 25.7658 28.3425C25.4513 28.3425 25.275 28.1205 25.275 27.8888C25.275 27.5038 25.6247 27.31 26.2023 27.3129V27.2878C26.2023 27.1877 26.1606 27.0219 25.8845 27.0219C25.7306 27.0219 25.57 27.0687 25.4641 27.1345L25.3871 26.8842C25.5026 26.8152 25.7049 26.7498 25.952 26.7498C26.4527 26.7498 26.5968 27.0597 26.5968 27.3915V27.9425C26.5968 28.0801 26.6034 28.2149 26.6191 28.3086H26.2628L26.2632 28.3082ZM26.2119 27.5635C25.9326 27.5571 25.6664 27.6168 25.6664 27.8484C25.6664 27.9986 25.7658 28.0676 25.8911 28.0676C26.0484 28.0676 26.1639 27.9675 26.199 27.8577C26.2086 27.8295 26.2119 27.7984 26.2119 27.7734V27.5635Z" fill="#262262"/>
<path d="M27.0139 27.2378C27.0139 27.0626 27.0106 26.9153 27.0011 26.7841H27.3475L27.3669 27.0126H27.3764C27.4439 26.8935 27.6139 26.7498 27.8738 26.7498C28.1465 26.7498 28.4288 26.9217 28.4288 27.404V28.3086H28.034V27.448C28.034 27.2289 27.9504 27.063 27.7356 27.063C27.5784 27.063 27.4692 27.1724 27.4277 27.2882C27.4149 27.3225 27.4116 27.3697 27.4116 27.4133V28.3086H27.0135V27.2382L27.0139 27.2378Z" fill="#262262"/>
<path d="M30.2902 26.0862V27.8795C30.2902 28.0361 30.2964 28.2049 30.303 28.3082H29.95L29.9339 28.0672H29.9276C29.8345 28.2363 29.6454 28.3425 29.4174 28.3425C29.045 28.3425 28.7499 28.0326 28.7499 27.5631C28.7466 27.053 29.0739 26.7494 29.4493 26.7494C29.6645 26.7494 29.8184 26.837 29.8888 26.9496H29.895V26.0859H30.2898L30.2902 26.0862ZM29.8954 27.4194C29.8954 27.388 29.8921 27.3504 29.8859 27.3193C29.8507 27.1691 29.7253 27.0469 29.5457 27.0469C29.292 27.0469 29.1509 27.266 29.1509 27.5506C29.1509 27.8352 29.292 28.0326 29.5424 28.0326C29.7029 28.0326 29.8441 27.926 29.8826 27.7601C29.8921 27.7258 29.8954 27.6883 29.8954 27.6475V27.4194Z" fill="#262262"/>
<path d="M31.1336 26.3587C31.1336 26.4745 31.0471 26.5653 30.9089 26.5653C30.7707 26.5653 30.6908 26.4745 30.6908 26.3587C30.6908 26.2428 30.7806 26.1488 30.9122 26.1488C31.0438 26.1488 31.1303 26.2396 31.1336 26.3587ZM30.7132 28.3086V26.7845H31.1112V28.3086H30.7132Z" fill="#262262"/>
<path d="M31.535 27.2754C31.535 27.0687 31.5317 26.9218 31.5222 26.7841H31.8657L31.8785 27.0751H31.8913C31.9683 26.8592 32.1512 26.7498 32.318 26.7498C32.3565 26.7498 32.3788 26.753 32.4111 26.7591V27.122C32.3792 27.1159 32.3437 27.1095 32.2956 27.1095C32.1061 27.1095 31.9778 27.2285 31.9426 27.4005C31.936 27.4348 31.9298 27.4756 31.9298 27.5195V28.3082H31.535V27.2754Z" fill="#262262"/>
<path d="M33.0977 26.3587C33.0977 26.4745 33.0111 26.5653 32.873 26.5653C32.7348 26.5653 32.6549 26.4745 32.6549 26.3587C32.6549 26.2429 32.7447 26.1488 32.8763 26.1488C33.0079 26.1488 33.0944 26.2396 33.0977 26.3587ZM32.6772 28.3086V26.7845H33.0753V28.3086H32.6772Z" fill="#262262"/>
</svg>
