<svg width="40" height="40" viewBox="0 0 40 40" fill="none" xmlns="http://www.w3.org/2000/svg">
<rect width="40" height="40" rx="6" fill="#4B2489"/>
<path fill-rule="evenodd" clip-rule="evenodd" d="M13.3429 23.3445C12.4305 24.2118 11.2154 24.6882 9.95666 24.672C8.69171 24.6911 7.46946 24.2147 6.55118 23.3445C6.11911 22.9255 5.7756 22.424 5.54101 21.8698C5.30643 21.3155 5.18555 20.7198 5.18555 20.1179C5.18555 19.5161 5.30643 18.9204 5.54101 18.3661C5.7756 17.8119 6.11911 17.3104 6.55118 16.8914C7.4683 16.016 8.69285 15.5364 9.96051 15.5561C11.2192 15.54 12.4344 16.0164 13.3468 16.8837C13.7793 17.3024 14.1232 17.8038 14.3581 18.3581C14.593 18.9124 14.7141 19.5082 14.7141 20.1102C14.7141 20.7122 14.593 21.3081 14.3581 21.8624C14.1232 22.4167 13.7793 22.9181 13.3468 23.3368L13.3429 23.3445ZM9.96051 17.0415C9.55873 17.0376 9.16034 17.1151 8.78935 17.2694C8.41837 17.4238 8.0825 17.6516 7.80201 17.9393C7.52151 18.227 7.30221 18.5685 7.15734 18.9433C7.01246 19.3181 6.94502 19.7183 6.95907 20.1199C6.95907 20.513 7.0365 20.9023 7.18695 21.2655C7.3374 21.6287 7.55792 21.9588 7.83592 22.2368C8.11391 22.5148 8.44394 22.7353 8.80716 22.8857C9.17038 23.0362 9.55967 23.1136 9.95282 23.1136C10.346 23.1136 10.7353 23.0362 11.0985 22.8857C11.4617 22.7353 11.7917 22.5148 12.0697 22.2368C12.3477 21.9588 12.5682 21.6287 12.7187 21.2655C12.8691 20.9023 12.9466 20.513 12.9466 20.1199C12.9606 19.7196 12.8936 19.3207 12.7496 18.9469C12.6057 18.5732 12.3878 18.2324 12.1089 17.9449C11.8301 17.6574 11.4961 17.4292 11.1269 17.274C10.7577 17.1188 10.361 17.0397 9.96051 17.0415ZM24.5829 16.6297L20.9235 24.7913L20.7157 24.7529C19.669 24.5643 19.4574 24.3026 18.9687 23.2406L16.2251 17.2646H15.1938V15.8139H19.0918V17.2646H18.1606L20.3655 22.2093L22.505 17.2646H21.3506V15.8139H24.5829V16.6297ZM33.4333 23.3445C32.5092 24.198 31.2974 24.6719 30.0394 24.6719C28.7814 24.6719 27.5696 24.198 26.6455 23.3445C26.2134 22.9255 25.8699 22.424 25.6353 21.8698C25.4007 21.3155 25.2798 20.7198 25.2798 20.1179C25.2798 19.5161 25.4007 18.9204 25.6353 18.3661C25.8699 17.8119 26.2134 17.3104 26.6455 16.8914C27.5696 16.0379 28.7814 15.5639 30.0394 15.5639C31.2974 15.5639 32.5092 16.0379 33.4333 16.8914C33.8668 17.3095 34.2117 17.8108 34.4472 18.3651C34.6827 18.9195 34.804 19.5156 34.804 20.1179C34.804 20.7202 34.6827 21.3164 34.4472 21.8707C34.2117 22.4251 33.8668 22.9263 33.4333 23.3445ZM30.0663 17.0415C29.6644 17.0376 29.2658 17.1151 28.8946 17.2694C28.5235 17.4237 28.1873 17.6515 27.9065 17.9391C27.6257 18.2267 27.4061 18.5682 27.2608 18.943C27.1155 19.3178 27.0475 19.7181 27.061 20.1199C27.061 20.513 27.1385 20.9023 27.2889 21.2655C27.4394 21.6287 27.6599 21.9588 27.9379 22.2368C28.2159 22.5148 28.5459 22.7353 28.9091 22.8857C29.2724 23.0362 29.6616 23.1136 30.0548 23.1136C30.4479 23.1136 30.8372 23.0362 31.2004 22.8857C31.5637 22.7353 31.8937 22.5148 32.1717 22.2368C32.4497 21.9588 32.6702 21.6287 32.8207 21.2655C32.9711 20.9023 33.0485 20.513 33.0485 20.1199C33.0631 19.7198 32.9966 19.3209 32.8531 18.9472C32.7096 18.5735 32.492 18.2326 32.2135 17.9451C31.9349 17.6576 31.6012 17.4293 31.2322 17.274C30.8632 17.1187 30.4667 17.0396 30.0663 17.0415Z" fill="white"/>
</svg>
