<svg width="40" height="40" viewBox="0 0 40 40" fill="none" xmlns="http://www.w3.org/2000/svg">
<rect width="40" height="40" rx="6" fill="white"/>
<g clip-path="url(#clip0_880_2964)">
<path fill-rule="evenodd" clip-rule="evenodd" d="M13.9821 13.0029L4.42224 14.2769C4.42224 14.2769 4 14.3259 4 14.8343V23.9069C4 23.9069 4.05768 24.9687 5.27192 24.9687H16.1066C16.1066 24.9687 17.0723 24.7381 17.0723 23.772V16.2858C17.0723 16.2858 17.0913 15.224 15.8171 15.224H5.36883C5.24587 15.198 5.13278 15.1377 5.04264 15.0502C4.9525 14.9627 4.889 14.8514 4.85949 14.7294C4.82776 14.561 4.89583 14.5438 5.07407 14.5438H14.668V13.5096C14.668 13.5096 14.634 12.9551 13.9821 13.0029Z" fill="#E8451E"/>
<path fill-rule="evenodd" clip-rule="evenodd" d="M10.7291 23.429C9.93649 23.429 9.35273 23.1062 8.49151 22.2548C8.42097 22.1812 8.38197 22.083 8.38283 21.9811C8.38368 21.8792 8.42431 21.7817 8.49607 21.7093C8.56782 21.637 8.66503 21.5954 8.76697 21.5936C8.86891 21.5918 8.96753 21.6299 9.04181 21.6997C9.9486 22.5955 10.3685 22.818 11.093 22.622C11.5141 22.5067 11.892 21.9717 11.9139 21.3567C11.9312 20.8788 11.5937 20.567 10.9113 20.4303C9.68614 20.1854 8.96279 19.7173 8.76205 19.0382C8.60053 18.4918 8.81281 17.8813 9.34407 17.3666L9.36599 17.347C10.5081 16.393 11.8343 17.1037 12.3759 17.6133C12.4482 17.685 12.4896 17.782 12.4914 17.8838C12.4932 17.9856 12.4552 18.084 12.3855 18.1582C12.3157 18.2324 12.2198 18.2765 12.118 18.2811C12.0163 18.2857 11.9168 18.2504 11.8406 18.1828C11.7951 18.1401 10.7689 17.2086 9.87938 17.9372C9.57539 18.2376 9.4381 18.5667 9.51309 18.8192C9.62153 19.187 10.173 19.4879 11.0654 19.6666C12.5819 19.9698 12.7111 20.971 12.6961 21.3872C12.6638 22.294 11.9047 23.3097 11.1923 23.3996C11.0386 23.4191 10.8839 23.429 10.7291 23.429Z" fill="white"/>
<path fill-rule="evenodd" clip-rule="evenodd" d="M21.093 15.1692C20.92 15.0636 20.7327 14.9834 20.5369 14.9311C20.1331 14.8158 19.8418 14.6682 19.7028 14.4797C19.5788 14.316 19.5788 14.1028 19.7276 13.8295C19.8118 13.6658 20.016 13.5621 20.2785 13.5413C20.6107 13.5281 20.9402 13.6052 21.232 13.7644C21.2741 13.7854 21.3228 13.7889 21.3674 13.774C21.412 13.7591 21.4489 13.7272 21.4699 13.6851C21.491 13.6431 21.4944 13.5944 21.4796 13.5498C21.4647 13.5052 21.4327 13.4684 21.3906 13.4473C20.984 13.2387 20.5831 13.1591 20.2491 13.1845C19.8614 13.2139 19.5569 13.3828 19.4103 13.6554C19.1865 14.0676 19.2015 14.4048 19.4103 14.6873C19.6036 14.9403 19.956 15.134 20.4377 15.2677C20.6026 15.3136 20.7609 15.3802 20.909 15.466C21.0976 15.5813 21.2216 15.7145 21.2816 15.858C21.339 15.9935 21.3472 16.1448 21.3047 16.2857C21.2814 16.3587 21.2497 16.4288 21.2101 16.4944C21.2101 16.5042 21.2003 16.514 21.1905 16.529C21.0463 16.7423 20.8132 16.8512 20.53 16.8512C20.2173 16.8512 19.8349 16.7273 19.4282 16.4794C19.3705 16.4448 19.3129 16.4097 19.2644 16.3751C19.2249 16.3488 19.1766 16.3392 19.1301 16.3485C19.0836 16.3578 19.0427 16.3852 19.0164 16.4247C18.9901 16.4641 18.9805 16.5124 18.9898 16.5589C18.9991 16.6053 19.0265 16.6462 19.066 16.6725C19.1242 16.7092 19.1805 16.7491 19.2344 16.7919C19.7011 17.0749 20.1429 17.2132 20.5202 17.2132C20.9274 17.2132 21.2649 17.0547 21.4783 16.7371C21.4869 16.7198 21.497 16.7032 21.5083 16.6875C21.5659 16.5947 21.6109 16.4947 21.6421 16.3901C21.7087 16.1709 21.6946 15.9351 21.6023 15.7254C21.4951 15.4913 21.3169 15.2967 21.093 15.1692Z" fill="#E8451E"/>
<path fill-rule="evenodd" clip-rule="evenodd" d="M23.8288 14.7772C23.6256 14.7273 23.4125 14.7341 23.2128 14.7968C22.9853 14.867 22.7755 14.9849 22.5973 15.1426V13.3534C22.5947 13.3078 22.5748 13.265 22.5416 13.2336C22.5084 13.2023 22.4644 13.1848 22.4188 13.1848C22.3731 13.1848 22.3292 13.2023 22.296 13.2336C22.2628 13.265 22.2428 13.3078 22.2402 13.3534V17.0391C22.2428 17.0847 22.2628 17.1275 22.296 17.1589C22.3292 17.1902 22.3731 17.2077 22.4188 17.2077C22.4644 17.2077 22.5084 17.1902 22.5416 17.1589C22.5748 17.1275 22.5947 17.0847 22.5973 17.0391V15.6597C22.6008 15.6569 22.6041 15.6538 22.6071 15.6505C22.8309 15.3772 23.079 15.2089 23.3172 15.1346C23.4538 15.0903 23.6 15.0851 23.7394 15.1196C23.8529 15.1503 23.9525 15.2186 24.0221 15.3133C24.0995 15.4332 24.1376 15.5742 24.1311 15.7168V17.0351C24.1311 17.0825 24.1499 17.1279 24.1835 17.1614C24.217 17.195 24.2625 17.2138 24.3099 17.2138C24.3573 17.2138 24.4028 17.195 24.4364 17.1614C24.4699 17.1279 24.4887 17.0825 24.4887 17.0351V15.715C24.4949 15.4994 24.4322 15.2875 24.3099 15.1098C24.1931 14.9465 24.023 14.8289 23.8288 14.7772Z" fill="#E8451E"/>
<path fill-rule="evenodd" clip-rule="evenodd" d="M26.866 16.6028C26.6997 16.7679 26.4748 16.8605 26.2404 16.8605C26.006 16.8605 25.7811 16.7679 25.6148 16.6028C25.4497 16.4367 25.357 16.2119 25.357 15.9777C25.357 15.7435 25.4497 15.5187 25.6148 15.3525C25.7818 15.1883 26.0064 15.0958 26.2407 15.0949C26.4155 15.095 26.5863 15.1469 26.7316 15.2439C26.8769 15.341 26.9902 15.4789 27.0571 15.6403C27.124 15.8016 27.1415 15.9792 27.1075 16.1505C27.0735 16.3218 26.9895 16.4792 26.866 16.6028ZM26.2407 14.7427C25.9176 14.7497 25.61 14.8828 25.3839 15.1137C25.1578 15.3445 25.0312 15.6547 25.0312 15.9777C25.0312 16.3007 25.1578 16.6109 25.3839 16.8417C25.61 17.0726 25.9176 17.2057 26.2407 17.2127C26.5639 17.2057 26.8714 17.0726 27.0975 16.8417C27.3236 16.6109 27.4502 16.3007 27.4502 15.9777C27.4502 15.6547 27.3236 15.3445 27.0975 15.1137C26.8714 14.8828 26.5639 14.7497 26.2407 14.7427Z" fill="#E8451E"/>
<path fill-rule="evenodd" clip-rule="evenodd" d="M29.8739 16.6028C29.7075 16.7678 29.483 16.861 29.2486 16.8622C29.0738 16.8621 28.903 16.8103 28.7577 16.7132C28.6124 16.6161 28.4991 16.4782 28.4322 16.3168C28.3653 16.1555 28.3478 15.9779 28.3818 15.8066C28.4158 15.6353 28.4998 15.4779 28.6233 15.3543C28.7899 15.1899 29.0144 15.0974 29.2486 15.0966C29.423 15.0971 29.5934 15.1491 29.7383 15.246C29.8833 15.343 29.9962 15.4807 30.0631 15.6417C30.1299 15.8027 30.1476 15.9798 30.1139 16.1509C30.0803 16.3219 29.9967 16.4791 29.8739 16.6028ZM29.2532 14.7427C29.0909 14.7425 28.9302 14.7744 28.7803 14.8365C28.6305 14.8986 28.4944 14.9898 28.3799 15.1047C28.3653 15.1166 28.352 15.1299 28.3401 15.1445V14.9214C28.3401 14.874 28.3212 14.8285 28.2877 14.795C28.2542 14.7615 28.2087 14.7427 28.1612 14.7427C28.1138 14.7427 28.0683 14.7615 28.0348 14.795C28.0013 14.8285 27.9824 14.874 27.9824 14.9214V18.433C27.9824 18.4804 28.0013 18.5259 28.0348 18.5594C28.0683 18.5929 28.1138 18.6117 28.1612 18.6117C28.2087 18.6117 28.2542 18.5929 28.2877 18.5594C28.3212 18.5259 28.3401 18.4804 28.3401 18.433V16.8109C28.3545 16.823 28.3678 16.8363 28.3799 16.8507C28.5236 16.9943 28.7005 17.1002 28.8949 17.1591C29.0894 17.218 29.2954 17.228 29.4946 17.1884C29.6939 17.1487 29.8803 17.0606 30.0374 16.9317C30.1944 16.8029 30.3172 16.6373 30.3949 16.4497C30.4727 16.2621 30.5029 16.0582 30.4829 15.8562C30.463 15.6541 30.3935 15.4601 30.2806 15.2913C30.1677 15.1225 30.0148 14.9841 29.8356 14.8884C29.6564 14.7927 29.4564 14.7427 29.2532 14.7427Z" fill="#E8451E"/>
<path fill-rule="evenodd" clip-rule="evenodd" d="M31.4003 15.7047C31.4445 15.5604 31.5237 15.4293 31.631 15.3231C31.7011 15.2522 31.7845 15.196 31.8765 15.1576C31.9685 15.1192 32.0672 15.0994 32.1669 15.0994C32.2666 15.0994 32.3653 15.1192 32.4573 15.1576C32.5492 15.196 32.6327 15.2522 32.7028 15.3231C32.8093 15.4313 32.8909 15.5616 32.9416 15.7047H31.4003ZM32.9543 15.0706C32.8522 14.9661 32.7302 14.8833 32.5954 14.8271C32.4606 14.7708 32.3158 14.7423 32.1698 14.7432C32.0235 14.7408 31.8783 14.7686 31.7432 14.8249C31.6082 14.8813 31.4864 14.9649 31.3853 15.0706C30.9584 15.5318 30.9636 16.0281 31.132 16.529C31.2074 16.7425 31.3549 16.9231 31.5491 17.0397C31.7466 17.1628 31.977 17.2231 32.2096 17.2127C32.4936 17.2022 32.773 17.1382 33.0333 17.0242C33.0561 17.016 33.077 17.0032 33.0947 16.9867C33.1125 16.9701 33.1266 16.9501 33.1363 16.9279C33.1461 16.9057 33.1511 16.8818 33.1513 16.8575C33.1514 16.8333 33.1466 16.8093 33.1371 16.787C33.1277 16.7646 33.1137 16.7445 33.0962 16.7277C33.0786 16.711 33.0579 16.698 33.0351 16.6896C33.0124 16.6811 32.9882 16.6774 32.964 16.6786C32.9397 16.6799 32.916 16.686 32.8943 16.6967C32.6767 16.7966 32.4414 16.8522 32.2021 16.8605C32.0383 16.8663 31.8764 16.8251 31.7354 16.7417C31.6104 16.6566 31.5136 16.5362 31.4574 16.3958C31.4193 16.2899 31.3928 16.1801 31.3783 16.0684H33.0212C33.1106 16.0684 33.4036 16.088 33.2519 15.5871C33.1974 15.3924 33.0946 15.2145 32.9531 15.07L32.9543 15.0706Z" fill="#E8451E"/>
<path fill-rule="evenodd" clip-rule="evenodd" d="M34.1114 15.7047C34.1554 15.5603 34.2347 15.4291 34.3422 15.3231C34.4123 15.2522 34.4958 15.196 34.5878 15.1575C34.6799 15.1191 34.7786 15.0994 34.8784 15.0994C34.9781 15.0994 35.0768 15.1191 35.1689 15.1575C35.2609 15.196 35.3444 15.2522 35.4145 15.3231C35.5209 15.4314 35.6022 15.5616 35.6528 15.7047H34.1114ZM36.0023 15.8909V15.7606C35.9942 15.702 35.9811 15.6441 35.9631 15.5877C35.9092 15.3923 35.8066 15.2138 35.6649 15.0689C35.563 14.9644 35.441 14.8815 35.3063 14.8253C35.1716 14.769 35.0269 14.7405 34.881 14.7415C34.7347 14.739 34.5894 14.7668 34.4544 14.8232C34.3194 14.8795 34.1975 14.9632 34.0964 15.0689C33.6696 15.5301 33.6742 16.0264 33.8432 16.5273C33.9184 16.7409 34.0659 16.9216 34.2603 17.038C34.4578 17.1611 34.6882 17.2214 34.9208 17.211C35.2048 17.2005 35.4842 17.1365 35.7445 17.0225C35.7673 17.0143 35.7882 17.0015 35.8059 16.985C35.8237 16.9684 35.8378 16.9484 35.8475 16.9262C35.8573 16.904 35.8623 16.88 35.8625 16.8558C35.8626 16.8316 35.8578 16.8076 35.8483 16.7852C35.8389 16.7629 35.8249 16.7428 35.8074 16.726C35.7898 16.7093 35.7691 16.6963 35.7463 16.6879C35.7236 16.6794 35.6994 16.6757 35.6752 16.6769C35.6509 16.6782 35.6272 16.6843 35.6055 16.695C35.3879 16.7949 35.1526 16.8505 34.9133 16.8588C34.7495 16.8646 34.5876 16.8234 34.4466 16.74C34.3214 16.6551 34.2246 16.5346 34.1686 16.3941C34.1306 16.2881 34.1039 16.1784 34.089 16.0667H35.7324C35.7975 16.0673 35.9706 16.0777 36.0006 15.8909H36.0023Z" fill="#E8451E"/>
<path fill-rule="evenodd" clip-rule="evenodd" d="M22.0125 21.8195H20.1574V19.1258H21.8302C21.8589 19.1257 21.8876 19.1272 21.9161 19.1305C22.1711 19.1587 23.2844 19.3512 23.2844 20.5445C23.2844 21.8184 22.0113 21.8184 22.0113 21.8184L22.0125 21.8195ZM21.6848 18.0992H19.1133V24.9686H20.1574V22.9182H21.7967C22.3469 22.9236 22.8884 22.781 23.3646 22.5055C23.927 22.1729 24.4888 21.5867 24.4888 20.5733C24.4888 19.6227 23.995 19.0198 23.4701 18.6468C22.9463 18.2835 22.3224 18.0918 21.6848 18.098V18.0992Z" fill="#E8451E"/>
<path fill-rule="evenodd" clip-rule="evenodd" d="M27.0729 24.0227C26.7671 24.0227 26.468 23.9321 26.2137 23.7623C25.9593 23.5925 25.761 23.3512 25.6439 23.0688C25.5267 22.7865 25.4959 22.4758 25.5554 22.1759C25.6149 21.8761 25.7621 21.6006 25.9782 21.3843C26.1943 21.168 26.4698 21.0206 26.7697 20.9607C27.0697 20.9007 27.3807 20.931 27.6634 21.0477C27.9461 21.1644 28.1879 21.3622 28.3582 21.6161C28.5284 21.87 28.6196 22.1687 28.62 22.4744V22.4784C28.6197 22.8882 28.4566 23.2811 28.1665 23.5707C27.8763 23.8603 27.483 24.0228 27.0729 24.0227ZM28.62 20.0856V20.5692C28.2592 20.2766 27.8228 20.0921 27.3614 20.0372C26.9 19.9822 26.4325 20.059 26.013 20.2587C25.5934 20.4584 25.2391 20.7728 24.9911 21.1654C24.743 21.5581 24.6113 22.0129 24.6113 22.4773C24.6113 22.9416 24.743 23.3965 24.9911 23.7891C25.2391 24.1818 25.5934 24.4961 26.013 24.6958C26.4325 24.8955 26.9 24.9723 27.3614 24.9173C27.8228 24.8624 28.2592 24.6779 28.62 24.3853V24.9323H29.6629V20.0856H28.62Z" fill="#E8451E"/>
<path fill-rule="evenodd" clip-rule="evenodd" d="M30.1328 20.0194H31.5276L33.1641 23.1495L34.7429 20.0194H35.9998V20.0281L32.2515 27.0001H31.0234L32.4546 24.409L30.1328 20.0194Z" fill="#E8451E"/>
</g>
<defs>
<clipPath id="clip0_880_2964">
<rect width="32" height="14" fill="white" transform="translate(4 13)"/>
</clipPath>
</defs>
</svg>
